<?xml version="1.0" encoding="UTF-8"?>
<svg version="1.1" xmlns="http://www.w3.org/2000/svg" xmlns:xlink="http://www.w3.org/1999/xlink">

    <!-- Icons: https://fonts.google.com/icons -->

    <defs></defs>

    <symbol id="favorite" viewBox="0 -960 960 960">
        <path d="m480-120-58-52q-101-91-167-157T150-447.5Q111-500 95.5-544T80-634q0-94 63-157t157-63q52 0 99 22t81 62q34-40 81-62t99-22q94 0 157 63t63 157q0 46-15.5 90T810-447.5Q771-395 705-329T538-172l-58 52Zm0-108q96-86 158-147.5t98-107q36-45.5 50-81t14-70.5q0-60-40-100t-100-40q-47 0-87 26.5T518-680h-76q-15-41-55-67.5T300-774q-60 0-100 40t-40 100q0 35 14 70.5t50 81q36 45.5 98 107T480-228Zm0-273Z"/>
    </symbol>

    <symbol id="favorite-full" viewBox="0 0 24 24">
        <path d="M12 20.9999L10.55 19.6999C8.86667 18.1832 7.475 16.8749 6.375 15.7749C5.275 14.6749 4.4 13.6874 3.75 12.8124C3.1 11.9374 2.64583 11.1332 2.3875 10.3999C2.12917 9.66657 2 8.91657 2 8.1499C2 6.58324 2.525 5.2749 3.575 4.2249C4.625 3.1749 5.93333 2.6499 7.5 2.6499C8.36667 2.6499 9.19167 2.83324 9.975 3.1999C10.7583 3.56657 11.4333 4.08324 12 4.7499C12.5667 4.08324 13.2417 3.56657 14.025 3.1999C14.8083 2.83324 15.6333 2.6499 16.5 2.6499C18.0667 2.6499 19.375 3.1749 20.425 4.2249C21.475 5.2749 22 6.58324 22 8.1499C22 8.91657 21.8708 9.66657 21.6125 10.3999C21.3542 11.1332 20.9 11.9374 20.25 12.8124C19.6 13.6874 18.725 14.6749 17.625 15.7749C16.525 16.8749 15.1333 18.1832 13.45 19.6999L12 20.9999Z"/>
    </symbol>

    <symbol id="thumb-up" viewBox="0 -960 960 960">
        <path d="M720-120H280v-520l280-280 50 50q7 7 11.5 19t4.5 23v14l-44 174h258q32 0 56 24t24 56v80q0 7-2 15t-4 15L794-168q-9 20-30 34t-44 14Zm-360-80h360l120-280v-80H480l54-220-174 174v406Zm0-406v406-406Zm-80-34v80H160v360h120v80H80v-520h200Z"/>
    </symbol>

    <symbol id="thumb-down" viewBox="0 -960 960 960">
        <path d="M240-840h440v520L400-40l-50-50q-7-7-11.5-19t-4.5-23v-14l44-174H120q-32 0-56-24t-24-56v-80q0-7 2-15t4-15l120-282q9-20 30-34t44-14Zm360 80H240L120-480v80h360l-54 220 174-174v-406Zm0 406v-406 406Zm80 34v-80h120v-360H680v-80h200v520H680Z"/>
    </symbol>

    <symbol id="more-vert" viewBox="0 -960 960 960">
        <path d="M480-160q-33 0-56.5-23.5T400-240q0-33 23.5-56.5T480-320q33 0 56.5 23.5T560-240q0 33-23.5 56.5T480-160Zm0-240q-33 0-56.5-23.5T400-480q0-33 23.5-56.5T480-560q33 0 56.5 23.5T560-480q0 33-23.5 56.5T480-400Zm0-240q-33 0-56.5-23.5T400-720q0-33 23.5-56.5T480-800q33 0 56.5 23.5T560-720q0 33-23.5 56.5T480-640Z"/>
    </symbol>

    <symbol id="more-horiz" viewBox="0 -960 960 960">
        <path d="M240-400q-33 0-56.5-23.5T160-480q0-33 23.5-56.5T240-560q33 0 56.5 23.5T320-480q0 33-23.5 56.5T240-400Zm240 0q-33 0-56.5-23.5T400-480q0-33 23.5-56.5T480-560q33 0 56.5 23.5T560-480q0 33-23.5 56.5T480-400Zm240 0q-33 0-56.5-23.5T640-480q0-33 23.5-56.5T720-560q33 0 56.5 23.5T800-480q0 33-23.5 56.5T720-400Z"/>
    </symbol>

    <symbol id="navigate-before" viewBox="0 -960 960 960">
        <path d="M560-240 320-480l240-240 56 56-184 184 184 184-56 56Z"/>
    </symbol>

    <symbol id="download" viewBox="0 -960 960 960">
        <path d="M480-320 280-520l56-58 104 104v-326h80v326l104-104 56 58-200 200ZM240-160q-33 0-56.5-23.5T160-240v-120h80v120h480v-120h80v120q0 33-23.5 56.5T720-160H240Z"/>
    </symbol>

    <symbol id="upload" viewBox="0 -960 960 960">
        <path d="M440-320v-326L336-542l-56-58 200-200 200 200-56 58-104-104v326h-80ZM240-160q-33 0-56.5-23.5T160-240v-120h80v120h480v-120h80v120q0 33-23.5 56.5T720-160H240Z"/>
    </symbol>

    <symbol id="edit" viewBox="0 -960 960 960">
        <path d="M200-200h57l391-391-57-57-391 391v57Zm-80 80v-170l528-527q12-11 26.5-17t30.5-6q16 0 31 6t26 18l55 56q12 11 17.5 26t5.5 30q0 16-5.5 30.5T817-647L290-120H120Zm640-584-56-56 56 56Zm-141 85-28-29 57 57-29-28Z"/>
    </symbol>

    <symbol id="chat-bubble" viewBox="0 -960 960 960">
        <path d="M80-80v-720q0-33 23.5-56.5T160-880h640q33 0 56.5 23.5T880-800v480q0 33-23.5 56.5T800-240H240L80-80Zm126-240h594v-480H160v525l46-45Zm-46 0v-480 480Z"/>
    </symbol>

    <symbol id="share" viewBox="0 -960 960 960">
        <path d="M720-80q-50 0-85-35t-35-85q0-7 1-14.5t3-13.5L322-392q-17 15-38 23.5t-44 8.5q-50 0-85-35t-35-85q0-50 35-85t85-35q23 0 44 8.5t38 23.5l282-164q-2-6-3-13.5t-1-14.5q0-50 35-85t85-35q50 0 85 35t35 85q0 50-35 85t-85 35q-23 0-44-8.5T638-672L356-508q2 6 3 13.5t1 14.5q0 7-1 14.5t-3 13.5l282 164q17-15 38-23.5t44-8.5q50 0 85 35t35 85q0 50-35 85t-85 35Zm0-640q17 0 28.5-11.5T760-760q0-17-11.5-28.5T720-800q-17 0-28.5 11.5T680-760q0 17 11.5 28.5T720-720ZM240-440q17 0 28.5-11.5T280-480q0-17-11.5-28.5T240-520q-17 0-28.5 11.5T200-480q0 17 11.5 28.5T240-440Zm480 280q17 0 28.5-11.5T760-200q0-17-11.5-28.5T720-240q-17 0-28.5 11.5T680-200q0 17 11.5 28.5T720-160Zm0-600ZM240-480Zm480 280Z"/>
    </symbol>

    <symbol id="visibility" viewBox="0 -960 960 960">
        <path d="M480-320q75 0 127.5-52.5T660-500q0-75-52.5-127.5T480-680q-75 0-127.5 52.5T300-500q0 75 52.5 127.5T480-320Zm0-72q-45 0-76.5-31.5T372-500q0-45 31.5-76.5T480-608q45 0 76.5 31.5T588-500q0 45-31.5 76.5T480-392Zm0 192q-146 0-266-81.5T40-500q54-137 174-218.5T480-800q146 0 266 81.5T920-500q-54 137-174 218.5T480-200Zm0-300Zm0 220q113 0 207.5-59.5T832-500q-50-101-144.5-160.5T480-720q-113 0-207.5 59.5T128-500q50 101 144.5 160.5T480-280Z"/>
    </symbol>

</svg>
