
<svg version="1.1" class="icon-text" xmlns="http://www.w3.org/2000/svg" xmlns:xlink="http://www.w3.org/1999/xlink" x="0px" y="0px"
	 viewBox="0 0 64 64" style="enable-background:new 0 0 64 64;" xml:space="preserve">
	<style type="text/css">
		.icon-text-st0{fill:var(--color-primary);}
	</style>
	<g id="text">
		<path class="icon-text-st0" d="M52.2,34.9H11.8c-1.6,0-2.9-1.3-2.9-2.9s1.3-2.9,2.9-2.9h40.4c1.6,0,2.9,1.3,2.9,2.9C55.1,33.6,53.8,34.9,52.2,34.9z"/>
		<path class="icon-text-st0" d="M36.5,48.4H11.8c-1.6,0-2.9-1.3-2.9-2.9s1.3-2.9,2.9-2.9h24.6c1.6,0,2.9,1.3,2.9,2.9S38.1,48.4,36.5,48.4z"/>
		<path class="icon-text-st0" d="M52.2,21.5H11.8c-1.6,0-2.9-1.3-2.9-2.9s1.3-2.9,2.9-2.9h40.4c1.6,0,2.9,1.3,2.9,2.9S53.8,21.5,52.2,21.5z"/>
	</g>
</svg>
