
<svg version="1.1" class="icon-upload" xmlns="http://www.w3.org/2000/svg" xmlns:xlink="http://www.w3.org/1999/xlink" x="0px"
	 y="0px" viewBox="0 0 64 64" style="enable-background:new 0 0 64 64;" xml:space="preserve">
	<style type="text/css">
		.icon-upload-st0{fill:var(--color-primary);}
	</style>
	<g id="upload">
		<g id="add" transform="translate(-8.55 -7.35)">
			<path class="icon-upload-st0" d="M54.4,29L42.5,17c-0.5-0.5-1.2-0.8-2-0.8l0,0c-0.7,0-1.5,0.3-2,0.8L26.6,29.1c-1.1,1.1-1.1,2.9,0,3.9c0.5,0.5,1.3,0.8,2,0.8s1.4-0.3,2-0.8l7.1-7.2v22c0,1.5,1.3,2.8,2.8,2.8s2.8-1.3,2.8-2.8v-22l7.2,7.2c1.1,1.1,2.9,1.1,3.9,0C55.5,31.9,55.5,30.1,54.4,29z"/>
			<path class="icon-upload-st0" d="M26.4,62.4c-4.3,0-7.9-3.5-8-7.8v-9.3c0-1.5,1.3-2.8,2.8-2.8s2.8,1.2,2.8,2.8v9.2c0,1.3,1.3,2.4,2.6,2.3h27.9h0.1c1.4,0,2.5-1.1,2.6-2.4v-9.1c0-1.5,1.3-2.8,2.8-2.8s2.8,1.2,2.8,2.8v9.2c-0.1,4.5-3.8,8.1-8.3,7.9H26.7C26.6,62.4,26.5,62.4,26.4,62.4z"/>
		</g>
	</g>
</svg>
