<?xml version="1.0" encoding="UTF-8"?>
<svg version="1.1" xmlns="http://www.w3.org/2000/svg" xmlns:xlink="http://www.w3.org/1999/xlink">

    <!-- Icons: https://fonts.google.com/icons -->
    <!-- Icon Weight: 300 -->

    <defs></defs>

    <symbol id="light-mode" viewBox="0 -960 960 960">
        <path d="M480-360q50 0 85-35t35-85q0-50-35-85t-85-35q-50 0-85 35t-35 85q0 50 35 85t85 35Zm0 60q-74.92 0-127.46-52.54Q300-405.08 300-480q0-74.92 52.54-127.46Q405.08-660 480-660q74.92 0 127.46 52.54Q660-554.92 660-480q0 74.92-52.54 127.46Q554.92-300 480-300ZM200-450H50v-60h150v60Zm710 0H760v-60h150v60ZM450-760v-150h60v150h-60Zm0 710v-150h60v150h-60ZM262.92-656.92l-93.69-90.46 42.39-44.39 90.23 92.69-38.93 42.16Zm485.46 488.69-90.84-93.31 39.54-41.54 93.69 90.46-42.39 44.39Zm-91.46-528.85 90.46-93.69 44.39 42.39-92.69 90.23-42.16-38.93ZM168.23-211.62l93.31-90.84 40.77 39.54-90.08 94.07-44-42.77ZM480-480Z"/>
    </symbol>

    <symbol id="dark-mode" viewBox="0 -960 960 960">
        <path d="M481.15-140q-141.66 0-240.83-99.17-99.16-99.16-99.16-240.83 0-135.77 92.11-232.88 92.11-97.12 225.57-105.2 8.62 0 16.93.62 8.3.62 16.3 1.85-30.61 28.61-48.76 69.15-18.16 40.54-18.16 86.46 0 98.33 68.84 167.17Q562.82-424 661.15-424q46.54 0 86.77-18.15 40.23-18.16 68.46-48.77 1.23 8 1.85 16.31.61 8.3.61 16.92-7.69 133.46-104.8 225.57Q616.92-140 481.15-140Zm0-60q88 0 158-48.5t102-126.5q-20 5-40 8t-40 3q-123 0-209.5-86.5T365.15-660q0-20 3-40t8-40q-78 32-126.5 102t-48.5 158q0 116 82 198t198 82Zm-10-270Z"/>
    </symbol>

    <symbol id="arrow-forward" viewBox="0 -960 960 960">
        <path d="m320.62-93.85-56.77-56.77L593.23-480 263.85-809.38l56.77-56.77L706.77-480 320.62-93.85Z"/>
    </symbol>

    <symbol id="arrow-backward" viewBox="0 -960 960 960">
        <path d="M400-93.85 13.85-480 400-866.15l56.77 56.77L127.38-480l329.39 329.38L400-93.85Z"/>
    </symbol>

    <symbol id="close" viewBox="0 -960 960 960">
        <path d="M256-213.847 213.847-256l224-224-224-224L256-746.153l224 224 224-224L746.153-704l-224 224 224 224L704-213.847l-224-224-224 224Z"/>
    </symbol>

</svg>
