<?xml version="1.0" encoding="utf-8"?>
<!-- Generator: Adobe Illustrator 23.0.0, SVG Export Plug-In . SVG Version: 6.00 Build 0)  -->
<svg version="1.1" id="Capa_1" xmlns="http://www.w3.org/2000/svg" xmlns:xlink="http://www.w3.org/1999/xlink" x="0px" y="0px"
	 viewBox="0 0 64 64" style="enable-background:new 0 0 64 64;" xml:space="preserve">
<style type="text/css">
	.st0{fill:none;}
	.st1{fill:url(#SVGID_1_);}
</style>
<g id="icon">
	<rect id="grid" x="5" y="5" class="st0" width="54" height="54"/>
</g>
<linearGradient id="SVGID_1_" gradientUnits="userSpaceOnUse" x1="31.036" y1="5.9318" x2="31.036" y2="59.1968">
	<stop  offset="0" style="stop-color:#50F0FF"/>
	<stop  offset="1" style="stop-color:#7D64FF"/>
</linearGradient>
<path class="st1" d="M40.4,43.8c-9.9-1-18-8.9-19-18.8c-0.7-6.2,1.3-11.9,4.9-16.1c1.1-1.3-0.1-3.2-1.7-2.8
	C12.6,9.5,4,20.9,5.1,34.2c1,13.3,11.9,23.9,25.2,24.8c12,0.8,22.4-6.3,26.7-16.6c0.7-1.6-1.1-3-2.6-2.1
	C50.4,42.9,45.6,44.3,40.4,43.8z"/>
</svg>
