<?xml version="1.0" encoding="utf-8"?>
<!-- Generator: Adobe Illustrator 23.0.0, SVG Export Plug-In . SVG Version: 6.00 Build 0)  -->
<svg version="1.1" id="Capa_1" xmlns="http://www.w3.org/2000/svg" xmlns:xlink="http://www.w3.org/1999/xlink" x="0px" y="0px"
	 viewBox="0 0 64 64" style="enable-background:new 0 0 64 64;" xml:space="preserve">
<style type="text/css">
	.st0{fill:none;}
</style>
<rect x="5" y="5" class="st0" width="54" height="54"/>
<rect class="st0" width="5" height="5"/>
<rect x="59" y="59" class="st0" width="5" height="5"/>
<g>
	<path d="M46.7,33.7c0.1,8.2,7.2,10.9,7.2,10.9c-0.1,0.2-1.1,3.9-3.7,7.7c-2.3,3.3-4.6,6.6-8.3,6.6c-3.6,0.1-4.8-2.1-8.9-2.1
		c-4.1,0-5.4,2.1-8.8,2.2c-3.6,0.1-6.3-3.6-8.5-6.8c-4.6-6.7-8.2-18.9-3.4-27.2c2.4-4.1,6.6-6.7,11.2-6.8c3.5-0.1,6.8,2.3,8.9,2.3
		c2.1,0,6.1-2.9,10.3-2.5c1.8,0.1,6.7,0.7,9.9,5.4C52.3,23.6,46.7,26.9,46.7,33.7 M39.9,13.6c1.9-2.3,3.2-5.5,2.8-8.6
		c-2.7,0.1-6,1.8-8,4.1c-1.7,2-3.3,5.3-2.9,8.4C35,17.7,38.1,15.9,39.9,13.6"/>
</g>
</svg>
