<?xml version="1.0" encoding="utf-8"?>
<!-- Generator: Adobe Illustrator 23.0.0, SVG Export Plug-In . SVG Version: 6.00 Build 0)  -->
<svg version="1.1" id="Capa_1" xmlns="http://www.w3.org/2000/svg" xmlns:xlink="http://www.w3.org/1999/xlink" x="0px" y="0px"
	 viewBox="0 0 64 64" style="enable-background:new 0 0 64 64;" xml:space="preserve">
<style type="text/css">
	.st0{fill:none;}
	.st1{fill:#1B74E4;}
</style>
<rect x="5" y="5" class="st0" width="54" height="54"/>
<rect class="st0" width="5" height="5"/>
<rect x="59" y="59" class="st0" width="5" height="5"/>
<path class="st1" d="M32,5.1c-14.9,0-27,12.1-27,27c0,13.5,10,24.7,23,26.7V39.3h-6.7v-7.1H28v-4.7c0-7.8,3.8-11.3,10.3-11.3
	c3.1,0,4.8,0.2,5.5,0.3v6.2h-4.4c-2.8,0-3.7,2.6-3.7,5.6v3.9h8.1l-1.1,7.1h-7v19.6C48.8,57.1,59,45.8,59,32.1
	C59,17.2,46.9,5.1,32,5.1z"/>
</svg>
