<?xml version="1.0" encoding="utf-8"?>
<!-- Generator: Adobe Illustrator 23.0.0, SVG Export Plug-In . SVG Version: 6.00 Build 0)  -->
<svg version="1.1" id="Capa_1" xmlns="http://www.w3.org/2000/svg" xmlns:xlink="http://www.w3.org/1999/xlink" x="0px" y="0px"
	 viewBox="0 0 64 64" style="enable-background:new 0 0 64 64;" xml:space="preserve">
<style type="text/css">
	.st0{fill:none;}
	.st1{fill:#4285F4;}
	.st2{fill:#34A853;}
	.st3{fill:#FBBC05;}
	.st4{fill:#EA4335;}
</style>
<rect x="5" y="5" class="st0" width="54" height="54"/>
<rect class="st0" width="5" height="5"/>
<rect x="59" y="59" class="st0" width="5" height="5"/>
<g transform="matrix(1, 0, 0, 1, 27.009001, -39.238998)">
	<path class="st1" d="M31.4,71.8c0-1.8-0.2-3.5-0.4-5.1H5.6v10.1h14.6c-0.7,3.3-2.6,6.1-5.4,8.1v6.8h8.7
		C28.5,87,31.4,80.1,31.4,71.8z"/>
	<path class="st2" d="M5.6,98.2c7.3,0,13.4-2.4,17.8-6.5l-8.7-6.8c-2.4,1.6-5.5,2.6-9.2,2.6c-7,0-13-4.7-15.1-11.2h-9v7
		C-14.1,92.2-5,98.2,5.6,98.2z"/>
	<path class="st3" d="M-9.6,76.4c-0.6-1.6-0.9-3.4-0.9-5.2c0-1.8,0.3-3.5,0.9-5.2v-7h-9c-1.8,3.6-2.9,7.7-2.9,12.1
		c0,4.4,1.1,8.5,2.9,12.1L-9.6,76.4z"/>
	<path class="st4" d="M5.6,54.9c4,0,7.5,1.4,10.3,4.1l7.7-7.7c-4.7-4.4-10.8-7-18-7c-10.6,0-19.7,6.1-24.1,14.9l9,7
		C-7.4,59.7-1.5,54.9,5.6,54.9z"/>
</g>
</svg>
