
<svg version="1.1" class="icon-more" xmlns="http://www.w3.org/2000/svg" xmlns:xlink="http://www.w3.org/1999/xlink" x="0px" y="0px" viewBox="0 0 64 64" style="enable-background:new 0 0 64 64;" xml:space="preserve">
	<style type="text/css">
		.icon-more-st0{fill:var(--color-primary);}
	</style>
	<path id="more" class="icon-more-st0" d="M35.1,28.9V12c0-1.7-1.4-3.1-3.1-3.1c-1.7,0-3.1,1.4-3.1,3.1v16.8H12c-1.7,0-3.1,1.4-3.1,3.1c0,1.7,1.4,3.1,3.1,3.1l16.9,0.1V52c0,1.7,1.4,3.1,3.1,3.1c0.8,0,1.6-0.4,2.2-1s0.9-1.3,1-2.2V35.1H52c0.8,0,1.6-0.4,2.2-1c0.6-0.6,0.9-1.3,1-2.2c0-1.7-1.4-3.1-3.1-3.1L35.1,28.9z"/>
</svg>
