
<svg version="1.1" class="icon-search" xmlns="http://www.w3.org/2000/svg" xmlns:xlink="http://www.w3.org/1999/xlink" x="0px" y="0px" viewBox="0 0 64 64" style="enable-background:new 0 0 64 64;" xml:space="preserve">
	<style type="text/css">
		.icon-search-st0{fill:var(--color-primary);}
	</style>
	<path id="search" class="icon-search-st0" d="M54.5,51.3L41.7,38.5c2.9-3.8,4.3-8.5,3.8-13.2C45,20.4,42.6,16,38.8,13C30.9,6.6,19.3,7.8,13,15.7c-3.1,3.8-4.5,8.6-4,13.5s2.9,9.3,6.7,12.3c6.6,5.3,16.2,5.4,22.8,0.2l12.7,12.7c0.4,0.5,1,0.7,1.6,0.7c0.5,0,1.1-0.2,1.5-0.6c0.4-0.4,0.7-1,0.7-1.6C55.1,52.3,54.9,51.8,54.5,51.3z M41.1,27.3c0,7.6-6.2,13.8-13.8,13.8l0,0c-7.6,0-13.8-6.2-13.8-13.8s6.2-13.8,13.8-13.8l0,0C34.9,13.5,41.1,19.7,41.1,27.3z"/>
</svg>
